<svg xmlns="http://www.w3.org/2000/svg" viewBox="0 0 512 512">
  <defs>
    <linearGradient id="gradient" x1="0%" y1="0%" x2="100%" y2="100%">
      <stop offset="0%" stop-color="#E91E63" />
      <stop offset="100%" stop-color="#7C4DFF" />
    </linearGradient>
  </defs>
  <circle cx="256" cy="256" r="240" fill="url(#gradient)" />
  <g fill="#FFFFFF">
    <!-- Plate -->
    <circle cx="256" cy="265" r="130" fill="rgba(255, 255, 255, 0.9)" />
    <circle cx="256" cy="265" r="115" fill="transparent" stroke="rgba(255, 255, 255, 0.7)" stroke-width="2" />
    
    <!-- Utensils -->
    <path d="M190,170 L180,350 C180,355 185,360 190,360 C195,360 200,355 200,350 L190,170 Z" />
    <path d="M215,170 L215,190 C215,195 215,200 210,205 C205,210 205,215 205,220 L205,350 C205,355 210,360 215,360 C220,360 225,355 225,350 L225,220 C225,215 225,210 230,205 C235,200 235,195 235,190 L235,170 C235,165 230,160 225,160 C220,160 215,165 215,170 Z" />
    <path d="M312,160 C292,160 275,177 275,197 L275,350 C275,355 280,360 285,360 C290,360 295,355 295,350 L295,310 L312,310 C332,310 349,293 349,273 L349,197 C349,177 332,160 312,160 Z M329,273 C329,283 321,290 312,290 L295,290 L295,197 C295,187 303,180 312,180 C321,180 329,187 329,197 L329,273 Z" />
    
    <!-- Party elements -->
    <circle cx="200" cy="150" r="5" />
    <circle cx="230" cy="130" r="7" />
    <circle cx="300" cy="160" r="4" />
    <circle cx="310" cy="115" r="6" />
    <circle cx="170" cy="180" r="3" />
    <path d="M320,140 L335,125 M320,125 L335,140" stroke="#FFFFFF" stroke-width="3" stroke-linecap="round" />
    <path d="M170,130 L185,115 M170,115 L185,130" stroke="#FFFFFF" stroke-width="3" stroke-linecap="round" />
    <path d="M265,115 L275,100 M265,100 L275,115" stroke="#FFFFFF" stroke-width="3" stroke-linecap="round" />
  </g>
</svg>
