<svg xmlns="http://www.w3.org/2000/svg" viewBox="0 0 512 512">
  <defs>
    <linearGradient id="gradient" x1="0%" y1="0%" x2="100%" y2="100%">
      <stop offset="0%" stop-color="#E91E63" />
      <stop offset="100%" stop-color="#7C4DFF" />
    </linearGradient>
  </defs>
  
  <!-- Background -->
  <circle cx="256" cy="256" r="250" fill="url(#gradient)" opacity="0.1" />
  
  <!-- Party Elements -->
  <g stroke="#E91E63" stroke-width="4" fill="none" stroke-linecap="round" stroke-linejoin="round">
    <!-- Cake -->
    <path d="M176,320 L336,320 L336,280 C336,270 326,260 316,260 L196,260 C186,260 176,270 176,280 L176,320 Z" />
    <path d="M176,260 L336,260 L336,220 C336,210 326,200 316,200 L196,200 C186,200 176,210 176,220 L176,260 Z" />
    <path d="M196,200 L196,180 L316,180 L316,200" />
    <path d="M246,180 L246,160" />
    <path d="M266,180 L266,160" />
    <path d="M226,180 L226,170" />
    <path d="M286,180 L286,170" />
    <path d="M166,320 L346,320" />
    
    <!-- Balloons -->
    <circle cx="120" cy="150" r="25" fill="#FF9800" opacity="0.7" stroke="#FF9800" />
    <path d="M120,175 L140,220" />
    
    <circle cx="390" cy="160" r="30" fill="#7C4DFF" opacity="0.7" stroke="#7C4DFF" />
    <path d="M390,190 L370,240" />
    
    <circle cx="180" cy="100" r="20" fill="#4CAF50" opacity="0.7" stroke="#4CAF50" />
    <path d="M180,120 L190,160" />
    
    <circle cx="300" cy="120" r="22" fill="#E91E63" opacity="0.7" stroke="#E91E63" />
    <path d="M300,142 L280,180" />
    
    <!-- Confetti -->
    <path d="M100,100 L110,110" stroke="#FF9800" />
    <path d="M150,70 L160,80" stroke="#4CAF50" />
    <path d="M400,100 L410,110" stroke="#7C4DFF" />
    <path d="M350,70 L360,80" stroke="#E91E63" />
    <path d="M80,200 L90,210" stroke="#E91E63" />
    <path d="M420,200 L430,210" stroke="#4CAF50" />
    <path d="M90,300 L100,310" stroke="#7C4DFF" />
    <path d="M410,300 L420,310" stroke="#FF9800" />
    
    <!-- Streamers -->
    <path d="M80,80 C100,120 140,90 160,130 C180,170 220,140 240,180" stroke="#FF9800" />
    <path d="M430,80 C410,120 370,90 350,130 C330,170 290,140 270,180" stroke="#7C4DFF" />
    
    <!-- Gift -->
    <rect x="100" y="360" width="60" height="50" fill="#4CAF50" opacity="0.7" stroke="#4CAF50" />
    <rect x="120" y="340" width="20" height="90" fill="#7C4DFF" opacity="0.7" stroke="#7C4DFF" />
    <rect x="90" y="370" width="80" height="20" fill="#7C4DFF" opacity="0.7" stroke="#7C4DFF" />
    
    <!-- Gift 2 -->
    <rect x="350" y="370" width="70" height="40" fill="#E91E63" opacity="0.7" stroke="#E91E63" />
    <rect x="375" y="350" width="20" height="80" fill="#FF9800" opacity="0.7" stroke="#FF9800" />
    <rect x="340" y="380" width="90" height="20" fill="#FF9800" opacity="0.7" stroke="#FF9800" />
  </g>
  
  <!-- Text -->
  <text x="256" y="420" font-family="Arial" font-size="24" font-weight="bold" text-anchor="middle" fill="#333333">Celebrate in Style</text>
</svg>
